<svg width="111" height="30" viewBox="0 0 111 30" fill="none" xmlns="http://www.w3.org/2000/svg">
<path d="M4.92188 24H1.55859V7.19531H4.92188V13.9219H11.6367V7.19531H15V24H11.6367V17.2852H4.92188V24ZM28.0195 17.2852V13.9219C28.0195 13.4609 27.9297 13.0273 27.75 12.6211C27.5781 12.207 27.3398 11.8477 27.0352 11.543C26.7305 11.2383 26.3711 11 25.957 10.8281C25.5508 10.6484 25.1172 10.5586 24.6562 10.5586C24.1953 10.5586 23.7578 10.6484 23.3438 10.8281C22.9375 11 22.582 11.2383 22.2773 11.543C21.9727 11.8477 21.7305 12.207 21.5508 12.6211C21.3789 13.0273 21.293 13.4609 21.293 13.9219V17.2852H28.0195ZM31.3828 24H28.0195V20.6367H21.293V24H17.9414V13.9219C17.9414 12.9922 18.1172 12.1211 18.4688 11.3086C18.8203 10.4883 19.2969 9.77344 19.8984 9.16406C20.5078 8.55469 21.2188 8.07422 22.0312 7.72266C22.8516 7.37109 23.7266 7.19531 24.6562 7.19531C25.5859 7.19531 26.457 7.37109 27.2695 7.72266C28.0898 8.07422 28.8047 8.55469 29.4141 9.16406C30.0234 9.77344 30.5039 10.4883 30.8555 11.3086C31.207 12.1211 31.3828 12.9922 31.3828 13.9219V24ZM47.7422 18.9609C47.7422 19.6562 47.6094 20.3086 47.3438 20.918C47.0781 21.5273 46.7148 22.0625 46.2539 22.5234C45.8008 22.9766 45.2695 23.3359 44.6602 23.6016C44.0508 23.8672 43.3984 24 42.7031 24H34.3008V7.19531H42.7031C43.3984 7.19531 44.0508 7.32812 44.6602 7.59375C45.2695 7.85938 45.8008 8.22266 46.2539 8.68359C46.7148 9.13672 47.0781 9.66797 47.3438 10.2773C47.6094 10.8867 47.7422 11.5391 47.7422 12.2344C47.7422 12.5469 47.6992 12.8672 47.6133 13.1953C47.5273 13.5234 47.4062 13.8398 47.25 14.1445C47.0938 14.4492 46.9062 14.7266 46.6875 14.9766C46.4688 15.2266 46.2266 15.4336 45.9609 15.5977C46.2344 15.7461 46.4805 15.9492 46.6992 16.207C46.918 16.457 47.1055 16.7344 47.2617 17.0391C47.418 17.3438 47.5352 17.6641 47.6133 18C47.6992 18.3281 47.7422 18.6484 47.7422 18.9609ZM37.6641 20.6367H42.7031C42.9375 20.6367 43.1562 20.5938 43.3594 20.5078C43.5625 20.4219 43.7383 20.3047 43.8867 20.1562C44.043 20 44.1641 19.8203 44.25 19.6172C44.3359 19.4141 44.3789 19.1953 44.3789 18.9609C44.3789 18.7266 44.3359 18.5078 44.25 18.3047C44.1641 18.1016 44.043 17.9258 43.8867 17.7773C43.7383 17.6211 43.5625 17.5 43.3594 17.4141C43.1562 17.3281 42.9375 17.2852 42.7031 17.2852H37.6641V20.6367ZM37.6641 13.9219H42.7031C42.9375 13.9219 43.1562 13.8789 43.3594 13.793C43.5625 13.707 43.7383 13.5898 43.8867 13.4414C44.043 13.2852 44.1641 13.1055 44.25 12.9023C44.3359 12.6914 44.3789 12.4688 44.3789 12.2344C44.3789 12 44.3359 11.7812 44.25 11.5781C44.1641 11.375 44.043 11.1992 43.8867 11.0508C43.7383 10.8945 43.5625 10.7734 43.3594 10.6875C43.1562 10.6016 42.9375 10.5586 42.7031 10.5586H37.6641V13.9219ZM53.6484 24H50.2852V7.19531H53.6484V24ZM63.832 24H60.4805V10.5586H55.4297V7.19531H68.8711V10.5586H63.832V24ZM74.0156 10.5586V17.2852H77.3789C77.8398 17.2852 78.2734 17.1992 78.6797 17.0273C79.0859 16.8477 79.4414 16.6055 79.7461 16.3008C80.0508 15.9961 80.2891 15.6406 80.4609 15.2344C80.6406 14.8203 80.7305 14.3828 80.7305 13.9219C80.7305 13.4609 80.6406 13.0273 80.4609 12.6211C80.2891 12.207 80.0508 11.8477 79.7461 11.543C79.4414 11.2383 79.0859 11 78.6797 10.8281C78.2734 10.6484 77.8398 10.5586 77.3789 10.5586H74.0156ZM74.0156 24H70.6523V7.19531H77.3789C77.9961 7.19531 78.5898 7.27734 79.1602 7.44141C79.7305 7.59766 80.2617 7.82422 80.7539 8.12109C81.2539 8.41016 81.707 8.76172 82.1133 9.17578C82.5273 9.58203 82.8789 10.0352 83.168 10.5352C83.4648 11.0352 83.6914 11.5703 83.8477 12.1406C84.0117 12.7109 84.0938 13.3047 84.0938 13.9219C84.0938 14.5 84.0195 15.0625 83.8711 15.6094C83.7305 16.1562 83.5234 16.6758 83.25 17.168C82.9844 17.6602 82.6562 18.1133 82.2656 18.5273C81.875 18.9414 81.4375 19.3008 80.9531 19.6055L82.8164 24H79.2422L77.7773 20.6133L74.0156 20.6367V24Z" fill="url(#paint0_linear_145_1192)"/>
<mask id="mask0_145_1192" style="mask-type:alpha" maskUnits="userSpaceOnUse" x="84" y="1" width="28" height="28">
<rect x="84.5" y="1.5" width="27" height="27" fill="url(#paint1_linear_145_1192)" stroke="white"/>
</mask>
<g mask="url(#mask0_145_1192)">
<path d="M96.8552 25.192L97.4167 25.2616V24.6958V22.5291V22.1071L97.0007 22.0362C95.5273 21.785 94.3349 21.1005 93.4015 19.9755C92.4651 18.8468 92 17.556 92 16.0833C92 15.228 92.1631 14.4293 92.4869 13.6821C92.8091 12.9385 93.2844 12.2839 93.9189 11.7163L94.3128 11.3639L93.939 10.9901L92.3953 9.44637L92.0529 9.10403L91.6997 9.43515C90.7828 10.2948 90.0748 11.3042 89.5782 12.4598C89.0819 13.6147 88.8334 14.8239 88.8334 16.0833C88.8334 18.4058 89.5942 20.4419 91.1109 22.1684C92.6282 23.8957 94.5506 24.9063 96.8552 25.192ZM98.5834 24.6958V25.2662L99.1489 25.1914C101.452 24.8869 103.373 23.8677 104.889 22.1414C106.405 20.4156 107.167 18.3888 107.167 16.0833C107.167 13.534 106.276 11.3567 104.502 9.58178C102.981 8.06081 101.164 7.18943 99.0712 6.97124L99.464 6.57847L99.8176 6.22492L99.464 5.87137L97.9473 4.3547L97.5938 4.00115L97.2402 4.3547L93.4486 8.14637L93.095 8.49992L93.4486 8.85347L97.2402 12.6451L97.5938 12.9987L97.9473 12.6451L99.464 11.1285L99.8176 10.7749L99.464 10.4214L99.2416 10.199C100.384 10.4214 101.383 10.9648 102.251 11.8326C103.42 13.0017 104 14.4088 104 16.0833C104 17.5547 103.531 18.8397 102.588 19.9588C101.643 21.0791 100.451 21.7692 98.9929 22.0373L98.5834 22.1127V22.5291V24.6958Z" fill="url(#paint2_linear_145_1192)" stroke="#2853AF"/>
</g>
<defs>
<linearGradient id="paint0_linear_145_1192" x1="0.524691" y1="9" x2="85.3064" y2="17.9384" gradientUnits="userSpaceOnUse">
<stop stop-color="#0AB0D6"/>
<stop offset="1" stop-color="#2853AF"/>
</linearGradient>
<linearGradient id="paint1_linear_145_1192" x1="85.1605" y1="9.8" x2="111.346" y2="10.7744" gradientUnits="userSpaceOnUse">
<stop stop-color="#0AB0D6"/>
<stop offset="1" stop-color="#39548F"/>
</linearGradient>
<linearGradient id="paint2_linear_145_1192" x1="89.4404" y1="10.7045" x2="106.903" y2="11.268" gradientUnits="userSpaceOnUse">
<stop stop-color="#0AB0D6"/>
<stop offset="1" stop-color="#2853AF"/>
</linearGradient>
</defs>
</svg>
