<svg width="30" height="30" viewBox="0 0 30 30" fill="none" xmlns="http://www.w3.org/2000/svg">
<path d="M15 13.125C16.0313 13.125 16.9144 12.7581 17.6494 12.0244C18.3844 11.2906 18.7513 10.4075 18.75 9.375C18.7488 8.3425 18.3819 7.46 17.6494 6.7275C16.9169 5.995 16.0338 5.6275 15 5.625C13.9663 5.6225 13.0838 5.99 12.3525 6.7275C11.6213 7.465 11.2538 8.3475 11.25 9.375C11.2463 10.4025 11.6138 11.2856 12.3525 12.0244C13.0913 12.7631 13.9738 13.13 15 13.125ZM8.22188 30V28.125H14.0625V21.0863C12.4113 20.7913 10.9663 20.1006 9.7275 19.0144C8.48875 17.9281 7.63563 16.5837 7.16813 14.9812C5.18563 14.7475 3.495 13.9344 2.09625 12.5419C0.697502 11.1494 -0.00124833 9.46875 1.67411e-06 7.5V5.625C1.67411e-06 5.1225 0.186876 4.68437 0.560626 4.31062C0.934376 3.93687 1.3725 3.75 1.875 3.75H6.85125V0H23.1488V3.75H28.125C28.6275 3.75 29.0656 3.93687 29.4394 4.31062C29.8131 4.68437 30 5.1225 30 5.625V7.5C30 9.46625 29.3013 11.1462 27.9038 12.54C26.5063 13.9337 24.8156 14.7463 22.8319 14.9775C22.3656 16.5837 21.5131 17.9294 20.2744 19.0144C19.0356 20.0994 17.59 20.79 15.9375 21.0863V28.125H21.7781V30H8.22188ZM6.85125 12.9675V5.625H1.875V7.5C1.875 8.9275 2.35125 10.1544 3.30375 11.1806C4.25625 12.2069 5.43875 12.8025 6.85125 12.9675ZM15 19.2544C16.7313 19.2544 18.1975 18.6537 19.3988 17.4525C20.6013 16.25 21.2025 14.7831 21.2025 13.0519V1.875H8.7975V13.0538C8.7975 14.7837 9.39875 16.25 10.6013 17.4525C11.8025 18.6537 13.2688 19.2544 15 19.2544ZM23.1488 12.9656C24.5625 12.8006 25.745 12.2056 26.6963 11.1806C27.6475 10.1556 28.1238 8.92875 28.125 7.5V5.625H23.1488V12.9656Z" fill="black"/>
</svg>
