<svg width="34" height="34" viewBox="0 0 34 34" fill="none" xmlns="http://www.w3.org/2000/svg">
<path d="M10.5714 25.4321V8.42857M17 25.5393V17M23.4286 25.5714V12.7143M6.28571 2H27.7143C28.8509 2 29.941 2.45153 30.7447 3.25526C31.5485 4.05898 32 5.14907 32 6.28571V27.7143C32 28.8509 31.5485 29.941 30.7447 30.7447C29.941 31.5485 28.8509 32 27.7143 32H6.28571C5.14907 32 4.05898 31.5485 3.25526 30.7447C2.45153 29.941 2 28.8509 2 27.7143V6.28571C2 5.14907 2.45153 4.05898 3.25526 3.25526C4.05898 2.45153 5.14907 2 6.28571 2Z" stroke="black" stroke-width="2.28571" stroke-linecap="round" stroke-linejoin="round"/>
</svg>
